---
title: 邰肇玫.1980-奔放奔放（喜玛拉雅复刻版）【光美】【WAV+CUE】
date: 2022-12-07 11:14:22
categories: WAV车载音乐、镜像
tags: 华语中文
---
# 邰肇玫.1980-奔放奔放（喜玛拉雅复刻版）【光美】【WAV+CUE】

TITLE "奔放．奔放 [台湾复刻版]"
FILE "邰肇玫.-.[奔放奔放](1980)[WAV].wav" WAVE
TRACK 01 AUDIO
TITLE "奔放．奔放"
PERFORMER "邰肇玫"
FLAGS DCP
INDEX 01 00:00:00
TRACK 02 AUDIO
TITLE "吉他"
PERFORMER "邰肇玫"
FLAGS DCP
INDEX 00 02:52:60
INDEX 01 02:54:62
TRACK 03 AUDIO
TITLE "上路"
PERFORMER "邰肇玫"
FLAGS DCP
INDEX 00 05:48:22
INDEX 01 05:50:24
TRACK 04 AUDIO
TITLE "开夏天的窗"
PERFORMER "邰肇玫"
FLAGS DCP
INDEX 00 10:23:31
INDEX 01 10:25:33
TRACK 05 AUDIO
TITLE "木棉"
PERFORMER "邰肇玫"
FLAGS DCP
INDEX 00 13:26:53
INDEX 01 13:28:55
TRACK 06 AUDIO
TITLE "水的尽头"
PERFORMER "邰肇玫"
FLAGS DCP
INDEX 00 16:25:33
INDEX 01 16:27:35
TRACK 07 AUDIO
TITLE "雨"
PERFORMER "邰肇玫"
FLAGS DCP
INDEX 00 19:54:33
INDEX 01 19:56:35
TRACK 08 AUDIO
TITLE "阳光城市"
PERFORMER "邰肇玫"
FLAGS DCP
INDEX 00 23:23:57
INDEX 01 23:25:59
TRACK 09 AUDIO
TITLE "不要看星星"
PERFORMER "邰肇玫"
FLAGS DCP
INDEX 00 26:12:07
INDEX 01 26:14:09
TRACK 10 AUDIO
TITLE "雾来了．雾散了"
PERFORMER "邰肇玫"
FLAGS DCP
INDEX 00 30:01:41
INDEX 01 30:03:43
TRACK 11 AUDIO
TITLE "离开你．走近你"
PERFORMER "邰肇玫"
FLAGS DCP
INDEX 00 32:54:33
INDEX 01 32:56:35
TRACK 12 AUDIO
TITLE "交会"
PERFORMER "邰肇玫"
FLAGS DCP
INDEX 00 36:25:18
INDEX 01 36:27:20
邰肇玫.1980 - 奔放奔放（喜玛拉雅复刻版）【光美】【WAV+CUE】.rar: https://url27.ctfile.com/f/9388027-741329867-b12087?p=559675
(访问密码: 559675)
原文：[链接](https://blog.sina.com.cn/s/blog_1647c7e76010310hk.html)